<?xml version="1.0" standalone="no"?><!DOCTYPE svg PUBLIC "-//W3C//DTD SVG 1.1//EN" "http://www.w3.org/Graphics/SVG/1.1/DTD/svg11.dtd"><svg t="1596089908612" class="icon" viewBox="0 0 1024 1024" version="1.1" xmlns="http://www.w3.org/2000/svg" p-id="9688" xmlns:xlink="http://www.w3.org/1999/xlink" width="48" height="48"><defs><style type="text/css"></style></defs><path d="M396.96094 46.701648 61.919235 46.701648c-27.752064 0-50.255591 22.514783-50.255591 50.2648l0 335.00896c0 27.751041 22.503527 50.265824 50.255591 50.265824l335.040682 0c27.718295 0 50.254567-22.514783 50.254567-50.265824L447.214485 96.966449C447.215508 69.216431 424.678212 46.701648 396.96094 46.701648L396.96094 46.701648z" p-id="9689" fill="#ffffff"></path><path d="M912.027789 561.780777 576.974827 561.780777c-27.751041 0-50.243311 22.49227-50.243311 50.242288l0 335.030449c0 27.752064 22.49227 50.243311 50.243311 50.243311l335.052962 0c27.729551 0 50.243311-22.49227 50.243311-50.243311l0-335.030449C962.2711 584.273047 939.756317 561.780777 912.027789 561.780777L912.027789 561.780777z" p-id="9690" fill="#ffffff"></path><path d="M987.795427 174.962847l-270.76682-142.94155c-22.401196-11.839653-50.176796-3.244904-62.036915 19.134803L512.027629 321.976132c-11.816117 22.447245-3.233648 50.177819 19.202341 62.062498l270.778076 142.918014c22.423709 11.839653 50.242288 3.244904 62.08194-19.157315l142.919037-270.777053C1018.859933 214.57503 1010.275417 186.800453 987.795427 174.962847L987.795427 174.962847z" p-id="9691" fill="#ffffff"></path><path d="M396.96094 561.780777 61.919235 561.780777c-27.752064 0-50.255591 22.49227-50.255591 50.242288l0 335.030449c0 27.752064 22.503527 50.243311 50.255591 50.243311l335.040682 0c27.718295 0 50.254567-22.49227 50.254567-50.243311l0-335.030449C447.215508 584.273047 424.678212 561.780777 396.96094 561.780777L396.96094 561.780777z" p-id="9692" fill="#ffffff"></path></svg>