<?xml version="1.0" standalone="no"?><!DOCTYPE svg PUBLIC "-//W3C//DTD SVG 1.1//EN" "http://www.w3.org/Graphics/SVG/1.1/DTD/svg11.dtd"><svg t="1596108170825" class="icon" viewBox="0 0 1024 1024" version="1.1" xmlns="http://www.w3.org/2000/svg" p-id="6515" xmlns:xlink="http://www.w3.org/1999/xlink" width="48" height="48"><defs><style type="text/css"></style></defs><path d="M381.638376 359.911439c82.184502 0 156.811808 33.062731 210.656827 86.907749s86.907749 128.472325 86.907749 210.656827-33.062731 156.811808-86.907749 210.656826-128.472325 86.907749-210.656827 86.907749-156.811808-33.062731-209.712177-86.907749c-53.845018-53.845018-87.852399-128.472325-87.852398-210.656826s34.00738-156.811808 87.852398-210.656827c52.900369-53.845018 127.527675-86.907749 209.712177-86.907749z m160.590406 136.97417c-41.564576-40.619926-98.243542-66.125461-160.590406-66.125461s-119.02583 25.505535-159.645756 66.125461c-41.564576 41.564576-67.070111 98.243542-67.070111 160.590406s25.505535 119.02583 67.070111 160.590406c40.619926 40.619926 97.298893 66.125461 159.645756 66.125461s119.02583-25.505535 160.590406-66.125461c40.619926-41.564576 66.125461-98.243542 66.125462-160.590406s-25.505535-119.02583-66.125462-160.590406z" p-id="6516" fill="#fff00f"></path><path d="M591.350554 496.885609c-14.169742 13.225092-35.896679 13.225092-50.066421 0-14.169742-14.169742-14.169742-36.841328 0-50.066421l342.907749-342.907749c14.169742-14.169742 35.896679-14.169742 50.066421 0 14.169742 13.225092 14.169742 35.896679 0 50.066421L591.350554 496.885609z" p-id="6517" fill="#fff00f"></path><path d="M836.01476 187.98524c14.169742 13.225092 14.169742 35.896679 0 50.066421-14.169742 13.225092-35.896679 13.225092-50.066421 0L683.926199 135.084871c-14.169742-13.225092-14.169742-35.896679 0-50.066421 13.225092-13.225092 35.896679-13.225092 50.066421 0l102.02214 102.96679z" p-id="6518" fill="#fff00f"></path></svg>